solid Klammer
facet normal 1.86183618972494e-16 -0.484176847844562 -0.874970159497628
outer loop
vertex 14.3263154805501 64.9712323633463 0.0
vertex 3.0 59.5498445167808 3.0
vertex 9.67368451944989 64.9712323633463 0.0
endloop
endfacet
facet normal 0.267643863786095 0.963517909629941 4.02606864863302e-16
outer loop
vertex 3.0 79.5498445167808 5.0
vertex 21.0 74.5498445167808 2.5
vertex 3.00000000000001 79.5498445167808 3.0
endloop
endfacet
facet normal 0.316227766016837 -0.948683298050514 1.37506829092719e-17
outer loop
vertex 24.0 65.5498445167808 3.0
vertex 21.0 64.5498445167808 5.0
vertex 21.0 64.5498445167808 2.48263189536501
endloop
endfacet
facet normal 0.316227766016837 -0.948683298050514 1.37506829092719e-17
outer loop
vertex 21.0 64.5498445167808 5.0
vertex 24.0 65.5498445167808 3.0
vertex 24.0 65.5498445167808 5.4
endloop
endfacet
facet normal 0.316227766016837 -0.948683298050514 1.37506829092719e-17
outer loop
vertex 21.0 64.5498445167808 5.0
vertex 24.0 65.5498445167808 5.4
vertex 21.0 64.5498445167808 5.4
endloop
endfacet
facet normal 0.487129287243502 -1.2250933734228e-18 -0.873329867524086
outer loop
vertex 24.0 65.5498445167808 3.0
vertex 18.6215724014504 69.5498445167808 0.0
vertex 24.0 73.5498445167808 3.0
endloop
endfacet
facet normal 0.193916483646689 -0.762028086865667 -0.617826506551762
outer loop
vertex 3.0 59.5498445167808 3.0
vertex 15.1961509558155 65.0857483761551 0.0
vertex 21.0 64.5498445167808 2.48263189536501
endloop
endfacet
facet normal 0.0 -1.0 0.0
outer loop
vertex 0.0 59.5498445167808 5.0
vertex 3.0 59.5498445167808 3.0
vertex 3.0 59.5498445167808 5.0
endloop
endfacet
facet normal -0.130526192220045 -0.991444861373811 -0.0
outer loop
vertex 14.5435199947153 71.5782887519878 5.0
vertex 14.0 71.6498445167808 0.0
vertex 14.5435199947153 71.5782887519878 0.0
endloop
endfacet
facet normal -0.130526192220045 -0.991444861373811 -0.0
outer loop
vertex 14.0 71.6498445167808 0.0
vertex 14.5435199947153 71.5782887519878 5.0
vertex 14.0 71.6498445167808 5.0
endloop
endfacet
facet normal 1.0 -1.76247905159244e-16 0.0
outer loop
vertex 3.0 79.5498445167808 5.0
vertex 3.0 59.5498445167808 7.0
vertex 3.0 59.5498445167808 5.0
endloop
endfacet
facet normal 1.0 -1.76247905159244e-16 0.0
outer loop
vertex 3.0 59.5498445167808 7.0
vertex 3.0 79.5498445167808 5.0
vertex 3.0 79.5498445167808 7.0
endloop
endfacet
facet normal 0.0 0.0 -1.0
outer loop
vertex 7.68921379927479 73.5522436218659 0.0
vertex 7.97155576479296 70.0933645114961 0.0
vertex 7.9 69.5498445167808 0.0
endloop
endfacet
facet normal 0.0 0.0 -1.0
outer loop
vertex 7.97155576479296 70.0933645114961 0.0
vertex 7.68921379927479 73.5522436218659 0.0
vertex 8.80384904418447 74.0139406574065 0.0
endloop
endfacet
facet normal 0.0 0.0 -1.0
outer loop
vertex 7.97155576479296 70.0933645114961 0.0
vertex 8.80384904418447 74.0139406574065 0.0
vertex 8.18134665205268 70.5998445167808 0.0
endloop
endfacet
facet normal 0.0 0.0 -1.0
outer loop
vertex 8.18134665205268 70.5998445167808 0.0
vertex 8.80384904418447 74.0139406574065 0.0
vertex 8.51507575950825 71.0347687572725 0.0
endloop
endfacet
facet normal 0.0 0.0 -1.0
outer loop
vertex 8.51507575950825 71.0347687572725 0.0
vertex 8.80384904418447 74.0139406574065 0.0
vertex 8.95 71.3684978647281 0.0
endloop
endfacet
facet normal 0.0 0.0 -1.0
outer loop
vertex 8.95 71.3684978647281 0.0
vertex 8.80384904418447 74.0139406574065 0.0
vertex 9.67368451944989 74.1284566702153 0.0
endloop
endfacet
facet normal 0.0 0.0 -1.0
outer loop
vertex 8.95 71.3684978647281 0.0
vertex 9.67368451944989 74.1284566702153 0.0
vertex 9.45648000528471 71.5782887519878 0.0
endloop
endfacet
facet normal 0.0 0.0 -1.0
outer loop
vertex 9.45648000528471 71.5782887519878 0.0
vertex 9.67368451944989 74.1284566702153 0.0
vertex 10.0 71.6498445167808 0.0
endloop
endfacet
facet normal 0.0 0.0 -1.0
outer loop
vertex 10.0 71.6498445167808 0.0
vertex 9.67368451944989 74.1284566702153 0.0
vertex 14.3263154805501 74.1284566702153 0.0
endloop
endfacet
facet normal 0.0 0.0 -1.0
outer loop
vertex 10.0 71.6498445167808 0.0
vertex 14.3263154805501 74.1284566702153 0.0
vertex 14.0 71.6498445167808 0.0
endloop
endfacet
facet normal 0.0 0.0 -1.0
outer loop
vertex 14.0 71.6498445167808 0.0
vertex 14.3263154805501 74.1284566702153 0.0
vertex 14.5435199947153 71.5782887519878 0.0
endloop
endfacet
facet normal 0.0 0.0 -1.0
outer loop
vertex 14.5435199947153 71.5782887519878 0.0
vertex 14.3263154805501 74.1284566702153 0.0
vertex 15.1961509558155 74.0139406574065 0.0
endloop
endfacet
facet normal 0.0 0.0 -1.0
outer loop
vertex 14.5435199947153 71.5782887519878 0.0
vertex 15.1961509558155 74.0139406574065 0.0
vertex 15.05 71.3684978647281 0.0
endloop
endfacet
facet normal 0.0 0.0 -1.0
outer loop
vertex 15.05 71.3684978647281 0.0
vertex 15.1961509558155 74.0139406574065 0.0
vertex 15.4849242404918 71.0347687572725 0.0
endloop
endfacet
facet normal 0.0 0.0 -1.0
outer loop
vertex 15.4849242404918 71.0347687572725 0.0
vertex 15.1961509558155 74.0139406574065 0.0
vertex 16.3107862007252 73.5522436218659 0.0
endloop
endfacet
facet normal 0.0 0.0 -1.0
outer loop
vertex 15.4849242404918 71.0347687572725 0.0
vertex 16.3107862007252 73.5522436218659 0.0
vertex 15.8186533479473 70.5998445167808 0.0
endloop
endfacet
facet normal 0.0 0.0 -1.0
outer loop
vertex 15.8186533479473 70.5998445167808 0.0
vertex 16.3107862007252 73.5522436218659 0.0
vertex 16.028444235207 70.0933645114961 0.0
endloop
endfacet
facet normal 0.0 0.0 -1.0
outer loop
vertex 16.028444235207 70.0933645114961 0.0
vertex 16.3107862007252 73.5522436218659 0.0
vertex 16.1 69.5498445167808 0.0
endloop
endfacet
facet normal 0.0 0.0 -1.0
outer loop
vertex 5.53590385937429 70.7459954725964 0.0
vertex 5.53590385937428 68.3536935609653 0.0
vertex 5.37842759854962 69.5498445167808 0.0
endloop
endfacet
facet normal 0.0 0.0 -1.0
outer loop
vertex 5.53590385937428 68.3536935609653 0.0
vertex 5.53590385937429 70.7459954725964 0.0
vertex 5.99760089491492 67.2390583160556 0.0
endloop
endfacet
facet normal 0.0 0.0 -1.0
outer loop
vertex 5.99760089491492 67.2390583160556 0.0
vertex 5.53590385937429 70.7459954725964 0.0
vertex 5.99760089491492 71.860630717506 0.0
endloop
endfacet
facet normal 0.0 0.0 -1.0
outer loop
vertex 5.99760089491492 67.2390583160556 0.0
vertex 5.99760089491492 71.860630717506 0.0
vertex 6.73205481518983 66.2818993319706 0.0
endloop
endfacet
facet normal 0.0 0.0 -1.0
outer loop
vertex 6.73205481518983 66.2818993319706 0.0
vertex 5.99760089491492 71.860630717506 0.0
vertex 6.73205481518983 72.817789701591 0.0
endloop
endfacet
facet normal 0.0 0.0 -1.0
outer loop
vertex 6.73205481518983 66.2818993319706 0.0
vertex 6.73205481518983 72.817789701591 0.0
vertex 7.68921379927478 65.5474454116957 0.0
endloop
endfacet
facet normal 0.0 0.0 -1.0
outer loop
vertex 7.68921379927478 65.5474454116957 0.0
vertex 6.73205481518983 72.817789701591 0.0
vertex 7.68921379927479 73.5522436218659 0.0
endloop
endfacet
facet normal 0.0 0.0 -1.0
outer loop
vertex 7.68921379927478 65.5474454116957 0.0
vertex 7.68921379927479 73.5522436218659 0.0
vertex 7.9 69.5498445167808 0.0
endloop
endfacet
facet normal 0.0 0.0 -1.0
outer loop
vertex 7.68921379927478 65.5474454116957 0.0
vertex 7.9 69.5498445167808 0.0
vertex 7.97155576479296 69.0063245220655 0.0
endloop
endfacet
facet normal 0.0 0.0 -1.0
outer loop
vertex 7.68921379927478 65.5474454116957 0.0
vertex 7.97155576479296 69.0063245220655 0.0
vertex 8.80384904418448 65.0857483761551 0.0
endloop
endfacet
facet normal 0.0 0.0 -1.0
outer loop
vertex 8.80384904418448 65.0857483761551 0.0
vertex 7.97155576479296 69.0063245220655 0.0
vertex 8.18134665205268 68.4998445167808 0.0
endloop
endfacet
facet normal 0.0 0.0 -1.0
outer loop
vertex 8.80384904418448 65.0857483761551 0.0
vertex 8.18134665205268 68.4998445167808 0.0
vertex 8.51507575950825 68.0649202762891 0.0
endloop
endfacet
facet normal 0.0 0.0 -1.0
outer loop
vertex 8.80384904418448 65.0857483761551 0.0
vertex 8.51507575950825 68.0649202762891 0.0
vertex 8.95 67.7311911688335 0.0
endloop
endfacet
facet normal 0.0 0.0 -1.0
outer loop
vertex 8.80384904418448 65.0857483761551 0.0
vertex 8.95 67.7311911688335 0.0
vertex 9.67368451944989 64.9712323633463 0.0
endloop
endfacet
facet normal 0.0 0.0 -1.0
outer loop
vertex 9.67368451944989 64.9712323633463 0.0
vertex 8.95 67.7311911688335 0.0
vertex 9.45648000528471 67.5214002815738 0.0
endloop
endfacet
facet normal 0.0 0.0 -1.0
outer loop
vertex 9.67368451944989 64.9712323633463 0.0
vertex 9.45648000528471 67.5214002815738 0.0
vertex 10.0 67.4498445167808 0.0
endloop
endfacet
facet normal 0.0 0.0 -1.0
outer loop
vertex 9.67368451944989 64.9712323633463 0.0
vertex 10.0 67.4498445167808 0.0
vertex 14.3263154805501 64.9712323633463 0.0
endloop
endfacet
facet normal 0.0 0.0 -1.0
outer loop
vertex 14.3263154805501 64.9712323633463 0.0
vertex 10.0 67.4498445167808 0.0
vertex 14.0 67.4498445167808 0.0
endloop
endfacet
facet normal 0.0 0.0 -1.0
outer loop
vertex 14.3263154805501 64.9712323633463 0.0
vertex 14.0 67.4498445167808 0.0
vertex 14.5435199947153 67.5214002815738 0.0
endloop
endfacet
facet normal 0.0 0.0 -1.0
outer loop
vertex 14.3263154805501 64.9712323633463 0.0
vertex 14.5435199947153 67.5214002815738 0.0
vertex 15.1961509558155 65.0857483761551 0.0
endloop
endfacet
facet normal 0.0 0.0 -1.0
outer loop
vertex 15.1961509558155 65.0857483761551 0.0
vertex 14.5435199947153 67.5214002815738 0.0
vertex 15.05 67.7311911688335 0.0
endloop
endfacet
facet normal 0.0 0.0 -1.0
outer loop
vertex 15.1961509558155 65.0857483761551 0.0
vertex 15.05 67.7311911688335 0.0
vertex 15.4849242404918 68.0649202762891 0.0
endloop
endfacet
facet normal 0.0 0.0 -1.0
outer loop
vertex 15.1961509558155 65.0857483761551 0.0
vertex 15.4849242404918 68.0649202762891 0.0
vertex 16.3107862007252 65.5474454116957 0.0
endloop
endfacet
facet normal 0.0 0.0 -1.0
outer loop
vertex 16.3107862007252 65.5474454116957 0.0
vertex 15.4849242404918 68.0649202762891 0.0
vertex 15.8186533479473 68.4998445167808 0.0
endloop
endfacet
facet normal 0.0 0.0 -1.0
outer loop
vertex 16.3107862007252 65.5474454116957 0.0
vertex 15.8186533479473 68.4998445167808 0.0
vertex 16.028444235207 69.0063245220655 0.0
endloop
endfacet
facet normal 0.0 0.0 -1.0
outer loop
vertex 16.3107862007252 65.5474454116957 0.0
vertex 16.028444235207 69.0063245220655 0.0
vertex 16.1 69.5498445167808 0.0
endloop
endfacet
facet normal 0.0 0.0 -1.0
outer loop
vertex 16.3107862007252 65.5474454116957 0.0
vertex 16.1 69.5498445167808 0.0
vertex 16.3107862007252 73.5522436218659 0.0
endloop
endfacet
facet normal 0.0 0.0 -1.0
outer loop
vertex 16.3107862007252 65.5474454116957 0.0
vertex 16.3107862007252 73.5522436218659 0.0
vertex 17.2679451848102 72.8177897015909 0.0
endloop
endfacet
facet normal 0.0 0.0 -1.0
outer loop
vertex 16.3107862007252 65.5474454116957 0.0
vertex 17.2679451848102 72.8177897015909 0.0
vertex 17.2679451848102 66.2818993319706 0.0
endloop
endfacet
facet normal 0.0 0.0 -1.0
outer loop
vertex 17.2679451848102 66.2818993319706 0.0
vertex 17.2679451848102 72.8177897015909 0.0
vertex 18.0023991050851 67.2390583160556 0.0
endloop
endfacet
facet normal 0.0 0.0 -1.0
outer loop
vertex 18.0023991050851 67.2390583160556 0.0
vertex 17.2679451848102 72.8177897015909 0.0
vertex 18.0023991050851 71.860630717506 0.0
endloop
endfacet
facet normal 0.0 0.0 -1.0
outer loop
vertex 18.0023991050851 67.2390583160556 0.0
vertex 18.0023991050851 71.860630717506 0.0
vertex 18.4640961406257 70.7459954725964 0.0
endloop
endfacet
facet normal 0.0 0.0 -1.0
outer loop
vertex 18.0023991050851 67.2390583160556 0.0
vertex 18.4640961406257 70.7459954725964 0.0
vertex 18.4640961406257 68.3536935609652 0.0
endloop
endfacet
facet normal 0.0 0.0 -1.0
outer loop
vertex 18.4640961406257 68.3536935609652 0.0
vertex 18.4640961406257 70.7459954725964 0.0
vertex 18.6215724014504 69.5498445167808 0.0
endloop
endfacet
facet normal 0.130526192220045 -0.991444861373811 0.0
outer loop
vertex 10.0 71.6498445167808 5.0
vertex 9.45648000528471 71.5782887519878 0.0
vertex 10.0 71.6498445167808 0.0
endloop
endfacet
facet normal 0.130526192220045 -0.991444861373811 0.0
outer loop
vertex 9.45648000528471 71.5782887519878 0.0
vertex 10.0 71.6498445167808 5.0
vertex 9.45648000528471 71.5782887519878 5.0
endloop
endfacet
facet normal -0.382683432365087 0.923879532511288 0.0
outer loop
vertex 14.5435199947153 67.5214002815738 5.0
vertex 15.05 67.7311911688335 0.0
vertex 14.5435199947153 67.5214002815738 0.0
endloop
endfacet
facet normal -0.382683432365087 0.923879532511288 0.0
outer loop
vertex 15.05 67.7311911688335 0.0
vertex 14.5435199947153 67.5214002815738 5.0
vertex 15.05 67.7311911688335 5.0
endloop
endfacet
facet normal -0.0 1.0 -0.0
outer loop
vertex 0.0 79.5498445167808 7.0
vertex 3.0 79.5498445167808 5.0
vertex 0.0 79.5498445167808 5.0
endloop
endfacet
facet normal -0.0 1.0 -0.0
outer loop
vertex 3.0 79.5498445167808 5.0
vertex 0.0 79.5498445167808 7.0
vertex 3.0 79.5498445167808 7.0
endloop
endfacet
facet normal 0.0 0.0 1.0
outer loop
vertex 3.0 59.5498445167808 7.0
vertex 0.0 79.5498445167808 7.0
vertex 0.0 59.5498445167808 7.0
endloop
endfacet
facet normal 0.0 0.0 1.0
outer loop
vertex 0.0 79.5498445167808 7.0
vertex 3.0 59.5498445167808 7.0
vertex 3.0 79.5498445167808 7.0
endloop
endfacet
facet normal 0.99144486137381 0.130526192220051 0.0
outer loop
vertex 7.9 69.5498445167808 0.0
vertex 7.97155576479296 69.0063245220655 5.0
vertex 7.97155576479296 69.0063245220655 0.0
endloop
endfacet
facet normal 0.99144486137381 0.130526192220051 0.0
outer loop
vertex 7.97155576479296 69.0063245220655 5.0
vertex 7.9 69.5498445167808 0.0
vertex 7.9 69.5498445167808 5.0
endloop
endfacet
facet normal 0.328578001279371 -0.428211188224719 -0.841826392645436
outer loop
vertex 24.0 65.5498445167808 3.0
vertex 16.3107862007252 65.5474454116957 0.0
vertex 17.2679451848102 66.2818993319706 0.0
endloop
endfacet
facet normal 0.382683432365086 -0.923879532511288 0.0
outer loop
vertex 9.45648000528471 71.5782887519878 5.0
vertex 8.95 71.3684978647281 0.0
vertex 9.45648000528471 71.5782887519878 0.0
endloop
endfacet
facet normal 0.382683432365086 -0.923879532511288 0.0
outer loop
vertex 8.95 71.3684978647281 0.0
vertex 9.45648000528471 71.5782887519878 5.0
vertex 8.95 71.3684978647281 5.0
endloop
endfacet
facet normal 0.365152844347324 -0.280191632204984 -0.887781532533408
outer loop
vertex 24.0 65.5498445167808 3.0
vertex 17.2679451848102 66.2818993319706 0.0
vertex 18.0023991050851 67.2390583160556 0.0
endloop
endfacet
facet normal 0.452136222769897 -0.0595248629773902 -0.889960463586385
outer loop
vertex 24.0 65.5498445167808 3.0
vertex 18.4640961406257 68.3536935609652 0.0
vertex 18.6215724014504 69.5498445167808 0.0
endloop
endfacet
facet normal 0.169392975849104 0.00171170851860715 -0.985547101759694
outer loop
vertex 24.0 65.5498445167808 3.0
vertex 21.0 64.5498445167808 2.48263189536501
vertex 21.0 74.5498445167808 2.5
endloop
endfacet
facet normal 0.0 0.484176847844561 -0.874970159497628
outer loop
vertex 14.3263154805501 74.1284566702153 0.0
vertex 9.67368451944989 74.1284566702153 0.0
vertex 3.00000000000001 79.5498445167808 3.0
endloop
endfacet
facet normal 0.0796264918096205 0.60482325264473 -0.792368888121146
outer loop
vertex 15.1961509558155 74.0139406574065 0.0
vertex 14.3263154805501 74.1284566702153 0.0
vertex 3.00000000000001 79.5498445167808 3.0
endloop
endfacet
facet normal 0.0 -1.0 0.0
outer loop
vertex 3.0 59.5498445167808 7.0
vertex 0.0 59.5498445167808 5.0
vertex 3.0 59.5498445167808 5.0
endloop
endfacet
facet normal 0.0 -1.0 0.0
outer loop
vertex 0.0 59.5498445167808 5.0
vertex 3.0 59.5498445167808 7.0
vertex 0.0 59.5498445167808 7.0
endloop
endfacet
facet normal 0.308345868087635 0.530093345228122 -0.78988851806957
outer loop
vertex 24.0 73.5498445167808 3.0
vertex 16.3107862007252 73.5522436218659 0.0
vertex 21.0 74.5498445167808 2.5
endloop
endfacet
facet normal 0.31058154176542 -0.520112752419133 -0.795626690531187
outer loop
vertex 24.0 65.5498445167808 3.0
vertex 21.0 64.5498445167808 2.48263189536501
vertex 16.3107862007252 65.5474454116957 0.0
endloop
endfacet
facet normal 0.32857800127937 0.428211188224718 -0.841826392645437
outer loop
vertex 24.0 73.5498445167808 3.0
vertex 17.2679451848102 72.8177897015909 0.0
vertex 16.3107862007252 73.5522436218659 0.0
endloop
endfacet
facet normal 0.164398987305357 -7.2450989457857e-18 -0.986393923832144
outer loop
vertex 24.0 65.5498445167808 3.0
vertex 21.0 74.5498445167808 2.5
vertex 24.0 73.5498445167808 3.0
endloop
endfacet
facet normal 0.267643863786095 0.963517909629941 2.57668393512513e-16
outer loop
vertex 21.0 74.5498445167808 5.0
vertex 21.0 74.5498445167808 2.5
vertex 3.0 79.5498445167808 5.0
endloop
endfacet
facet normal 0.40306443510404 0.166954755530346 -0.899813964528259
outer loop
vertex 24.0 73.5498445167808 3.0
vertex 18.4640961406257 70.7459954725964 0.0
vertex 18.0023991050851 71.860630717506 0.0
endloop
endfacet
facet normal -0.0 1.0 -0.0
outer loop
vertex 3.0 79.5498445167808 5.0
vertex 3.00000000000001 79.5498445167808 3.0
vertex 0.0 79.5498445167808 5.0
endloop
endfacet
facet normal -0.0 -0.0 1.0
outer loop
vertex 3.0 59.5498445167808 5.0
vertex 0.0 79.5498445167808 5.0
vertex 0.0 59.5498445167808 5.0
endloop
endfacet
facet normal -0.0 -0.0 1.0
outer loop
vertex 0.0 79.5498445167808 5.0
vertex 3.0 59.5498445167808 5.0
vertex 3.0 79.5498445167808 5.0
endloop
endfacet
facet normal -0.628161496255371 0.0826990298702551 -0.773675645914185
outer loop
vertex 5.53590385937429 70.7459954725964 0.0
vertex 5.37842759854962 69.5498445167808 0.0
vertex 3.00000000000001 79.5498445167808 3.0
endloop
endfacet
facet normal 0.365152844347324 0.280191632204982 -0.887781532533408
outer loop
vertex 24.0 73.5498445167808 3.0
vertex 18.0023991050851 71.860630717506 0.0
vertex 17.2679451848102 72.8177897015909 0.0
endloop
endfacet
facet normal 0.403064435104041 -0.166954755530342 -0.899813964528259
outer loop
vertex 24.0 65.5498445167808 3.0
vertex 18.0023991050851 67.2390583160556 0.0
vertex 18.4640961406257 68.3536935609652 0.0
endloop
endfacet
facet normal -0.554700196225229 9.00168913307106e-17 -0.832050294337844
outer loop
vertex 3.00000000000001 79.5498445167808 3.0
vertex 0.0 59.5498445167808 5.0
vertex 0.0 79.5498445167808 5.0
endloop
endfacet
facet normal -0.554700196225229 9.00168913307106e-17 -0.832050294337844
outer loop
vertex 0.0 59.5498445167808 5.0
vertex 3.00000000000001 79.5498445167808 3.0
vertex 3.0 59.5498445167808 3.0
endloop
endfacet
facet normal -0.0 -0.0 1.0
outer loop
vertex 24.0 65.5498445167808 5.4
vertex 21.0 74.5498445167808 5.4
vertex 21.0 64.5498445167808 5.4
endloop
endfacet
facet normal -0.0 -0.0 1.0
outer loop
vertex 21.0 74.5498445167808 5.4
vertex 24.0 65.5498445167808 5.4
vertex 24.0 73.5498445167808 5.4
endloop
endfacet
facet normal 0.259162557437747 0.625673761025504 -0.735776537806504
outer loop
vertex 21.0 74.5498445167808 2.5
vertex 16.3107862007252 73.5522436218659 0.0
vertex 15.1961509558155 74.0139406574065 0.0
endloop
endfacet
facet normal -1.0 0.0 0.0
outer loop
vertex 21.0 74.5498445167808 5.4
vertex 21.0 64.5498445167808 5.0
vertex 21.0 64.5498445167808 5.4
endloop
endfacet
facet normal -1.0 0.0 0.0
outer loop
vertex 21.0 64.5498445167808 5.0
vertex 21.0 74.5498445167808 5.4
vertex 21.0 74.5498445167808 5.0
endloop
endfacet
facet normal -0.144859088858916 0.349720776956204 -0.925586961090158
outer loop
vertex 8.80384904418447 74.0139406574065 0.0
vertex 7.68921379927479 73.5522436218659 0.0
vertex 3.00000000000001 79.5498445167808 3.0
endloop
endfacet
facet normal -0.223190820758372 0.290867940597558 -0.930366432467198
outer loop
vertex 7.68921379927479 73.5522436218659 0.0
vertex 6.73205481518983 72.817789701591 0.0
vertex 3.00000000000001 79.5498445167808 3.0
endloop
endfacet
facet normal -0.056511413246087 -0.429246799579905 -0.90141757539075
outer loop
vertex 9.67368451944989 64.9712323633463 0.0
vertex 3.0 59.5498445167808 3.0
vertex 8.80384904418448 65.0857483761551 0.0
endloop
endfacet
facet normal -0.429587769309204 0.177941080277477 -0.885319897217738
outer loop
vertex 5.99760089491492 71.860630717506 0.0
vertex 5.53590385937429 70.7459954725964 0.0
vertex 3.00000000000001 79.5498445167808 3.0
endloop
endfacet
facet normal -0.0565114132460866 0.429246799579901 -0.901417575390752
outer loop
vertex 9.67368451944989 74.1284566702153 0.0
vertex 8.80384904418447 74.0139406574065 0.0
vertex 3.00000000000001 79.5498445167808 3.0
endloop
endfacet
facet normal -0.144859088858913 -0.349720776956206 -0.925586961090158
outer loop
vertex 8.80384904418448 65.0857483761551 0.0
vertex 3.0 59.5498445167808 3.0
vertex 7.68921379927478 65.5474454116957 0.0
endloop
endfacet
facet normal -0.223190820758371 -0.290867940597558 -0.930366432467198
outer loop
vertex 7.68921379927478 65.5474454116957 0.0
vertex 3.0 59.5498445167808 3.0
vertex 6.73205481518983 66.2818993319706 0.0
endloop
endfacet
facet normal -0.310304172092347 -0.238104765728924 -0.920335504758595
outer loop
vertex 6.73205481518983 66.2818993319706 0.0
vertex 3.0 59.5498445167808 3.0
vertex 5.99760089491492 67.2390583160556 0.0
endloop
endfacet
facet normal -0.429587769309207 -0.177941080277476 -0.885319897217737
outer loop
vertex 5.99760089491492 67.2390583160556 0.0
vertex 3.0 59.5498445167808 3.0
vertex 5.53590385937428 68.3536935609653 0.0
endloop
endfacet
facet normal -0.763707253695794 2.53996227550432e-16 -0.645562724026432
outer loop
vertex 3.00000000000001 79.5498445167808 3.0
vertex 5.53590385937428 68.3536935609653 0.0
vertex 3.0 59.5498445167808 3.0
endloop
endfacet
facet normal -0.935509200389685 -0.123162122747291 -0.331139891143657
outer loop
vertex 3.00000000000001 79.5498445167808 3.0
vertex 5.37842759854962 69.5498445167808 0.0
vertex 5.53590385937428 68.3536935609653 0.0
endloop
endfacet
facet normal 0.316227766016837 0.948683298050514 -1.18808406468029e-17
outer loop
vertex 21.0 74.5498445167808 5.0
vertex 24.0 73.5498445167808 3.0
vertex 21.0 74.5498445167808 2.5
endloop
endfacet
facet normal 0.316227766016837 0.948683298050514 -1.18808406468029e-17
outer loop
vertex 24.0 73.5498445167808 3.0
vertex 21.0 74.5498445167808 5.0
vertex 24.0 73.5498445167808 5.4
endloop
endfacet
facet normal 0.316227766016837 0.948683298050514 -1.18808406468029e-17
outer loop
vertex 24.0 73.5498445167808 5.4
vertex 21.0 74.5498445167808 5.0
vertex 21.0 74.5498445167808 5.4
endloop
endfacet
facet normal 0.267643863786095 -0.963517909629941 -1.03860263137161e-16
outer loop
vertex 21.0 64.5498445167808 5.0
vertex 3.0 59.5498445167808 3.0
vertex 21.0 64.5498445167808 2.48263189536501
endloop
endfacet
facet normal 0.267643863786095 -0.963517909629941 -1.03860263137161e-16
outer loop
vertex 3.0 59.5498445167808 3.0
vertex 21.0 64.5498445167808 5.0
vertex 3.0 59.5498445167808 5.0
endloop
endfacet
facet normal -0.310304172092342 0.238104765728926 -0.920335504758596
outer loop
vertex 6.73205481518983 72.817789701591 0.0
vertex 5.99760089491492 71.860630717506 0.0
vertex 3.00000000000001 79.5498445167808 3.0
endloop
endfacet
facet normal 0.194891541931687 0.763214784469617 -0.616052335155453
outer loop
vertex 3.00000000000001 79.5498445167808 3.0
vertex 21.0 74.5498445167808 2.5
vertex 15.1961509558155 74.0139406574065 0.0
endloop
endfacet
facet normal -1.95831005732493e-17 1.40998324127395e-17 1.0
outer loop
vertex 3.0 59.5498445167808 5.0
vertex 8.18134665205268 68.4998445167808 5.0
vertex 3.0 79.5498445167808 5.0
endloop
endfacet
facet normal -1.95831005732493e-17 1.40998324127395e-17 1.0
outer loop
vertex 8.18134665205268 68.4998445167808 5.0
vertex 3.0 59.5498445167808 5.0
vertex 8.51507575950825 68.0649202762891 5.0
endloop
endfacet
facet normal -1.95831005732493e-17 1.40998324127395e-17 1.0
outer loop
vertex 8.51507575950825 68.0649202762891 5.0
vertex 3.0 59.5498445167808 5.0
vertex 8.95 67.7311911688335 5.0
endloop
endfacet
facet normal -1.95831005732493e-17 1.40998324127395e-17 1.0
outer loop
vertex 8.95 67.7311911688335 5.0
vertex 3.0 59.5498445167808 5.0
vertex 9.45648000528471 67.5214002815738 5.0
endloop
endfacet
facet normal -1.95831005732493e-17 1.40998324127395e-17 1.0
outer loop
vertex 9.45648000528471 67.5214002815738 5.0
vertex 3.0 59.5498445167808 5.0
vertex 21.0 64.5498445167808 5.0
endloop
endfacet
facet normal -1.95831005732493e-17 1.40998324127395e-17 1.0
outer loop
vertex 3.0 79.5498445167808 5.0
vertex 8.18134665205268 68.4998445167808 5.0
vertex 7.97155576479296 69.0063245220655 5.0
endloop
endfacet
facet normal -1.95831005732493e-17 1.40998324127395e-17 1.0
outer loop
vertex 3.0 79.5498445167808 5.0
vertex 7.97155576479296 69.0063245220655 5.0
vertex 7.9 69.5498445167808 5.0
endloop
endfacet
facet normal -1.95831005732493e-17 1.40998324127395e-17 1.0
outer loop
vertex 9.45648000528471 67.5214002815738 5.0
vertex 21.0 64.5498445167808 5.0
vertex 10.0 67.4498445167808 5.0
endloop
endfacet
facet normal -1.95831005732493e-17 1.40998324127395e-17 1.0
outer loop
vertex 10.0 67.4498445167808 5.0
vertex 21.0 64.5498445167808 5.0
vertex 14.0 67.4498445167808 5.0
endloop
endfacet
facet normal -1.95831005732493e-17 1.40998324127395e-17 1.0
outer loop
vertex 14.0 67.4498445167808 5.0
vertex 21.0 64.5498445167808 5.0
vertex 14.5435199947153 67.5214002815738 5.0
endloop
endfacet
facet normal -1.95831005732493e-17 1.40998324127395e-17 1.0
outer loop
vertex 14.5435199947153 67.5214002815738 5.0
vertex 21.0 64.5498445167808 5.0
vertex 15.05 67.7311911688335 5.0
endloop
endfacet
facet normal -1.95831005732493e-17 1.40998324127395e-17 1.0
outer loop
vertex 15.05 67.7311911688335 5.0
vertex 21.0 64.5498445167808 5.0
vertex 15.4849242404918 68.0649202762891 5.0
endloop
endfacet
facet normal -1.95831005732493e-17 1.40998324127395e-17 1.0
outer loop
vertex 15.4849242404918 68.0649202762891 5.0
vertex 21.0 64.5498445167808 5.0
vertex 15.8186533479473 68.4998445167808 5.0
endloop
endfacet
facet normal -1.95831005732493e-17 1.40998324127395e-17 1.0
outer loop
vertex 15.8186533479473 68.4998445167808 5.0
vertex 21.0 64.5498445167808 5.0
vertex 16.028444235207 69.0063245220655 5.0
endloop
endfacet
facet normal -1.95831005732493e-17 1.40998324127395e-17 1.0
outer loop
vertex 16.028444235207 69.0063245220655 5.0
vertex 21.0 64.5498445167808 5.0
vertex 16.1 69.5498445167808 5.0
endloop
endfacet
facet normal -1.95831005732493e-17 1.40998324127395e-17 1.0
outer loop
vertex 3.0 79.5498445167808 5.0
vertex 9.45648000528471 71.5782887519878 5.0
vertex 21.0 74.5498445167808 5.0
endloop
endfacet
facet normal -1.95831005732493e-17 1.40998324127395e-17 1.0
outer loop
vertex 9.45648000528471 71.5782887519878 5.0
vertex 3.0 79.5498445167808 5.0
vertex 8.95 71.3684978647281 5.0
endloop
endfacet
facet normal -1.95831005732493e-17 1.40998324127395e-17 1.0
outer loop
vertex 8.95 71.3684978647281 5.0
vertex 3.0 79.5498445167808 5.0
vertex 8.51507575950825 71.0347687572725 5.0
endloop
endfacet
facet normal -1.95831005732493e-17 1.40998324127395e-17 1.0
outer loop
vertex 8.51507575950825 71.0347687572725 5.0
vertex 3.0 79.5498445167808 5.0
vertex 8.18134665205268 70.5998445167808 5.0
endloop
endfacet
facet normal -1.95831005732493e-17 1.40998324127395e-17 1.0
outer loop
vertex 8.18134665205268 70.5998445167808 5.0
vertex 3.0 79.5498445167808 5.0
vertex 7.97155576479296 70.0933645114961 5.0
endloop
endfacet
facet normal -1.95831005732493e-17 1.40998324127395e-17 1.0
outer loop
vertex 7.97155576479296 70.0933645114961 5.0
vertex 3.0 79.5498445167808 5.0
vertex 7.9 69.5498445167808 5.0
endloop
endfacet
facet normal -1.95831005732493e-17 1.40998324127395e-17 1.0
outer loop
vertex 21.0 74.5498445167808 5.0
vertex 9.45648000528471 71.5782887519878 5.0
vertex 10.0 71.6498445167808 5.0
endloop
endfacet
facet normal -1.95831005732493e-17 1.40998324127395e-17 1.0
outer loop
vertex 21.0 74.5498445167808 5.0
vertex 10.0 71.6498445167808 5.0
vertex 14.0 71.6498445167808 5.0
endloop
endfacet
facet normal -1.95831005732493e-17 1.40998324127395e-17 1.0
outer loop
vertex 21.0 74.5498445167808 5.0
vertex 14.0 71.6498445167808 5.0
vertex 14.5435199947153 71.5782887519878 5.0
endloop
endfacet
facet normal -1.95831005732493e-17 1.40998324127395e-17 1.0
outer loop
vertex 21.0 74.5498445167808 5.0
vertex 14.5435199947153 71.5782887519878 5.0
vertex 15.05 71.3684978647281 5.0
endloop
endfacet
facet normal -1.95831005732493e-17 1.40998324127395e-17 1.0
outer loop
vertex 21.0 74.5498445167808 5.0
vertex 15.05 71.3684978647281 5.0
vertex 15.4849242404918 71.0347687572725 5.0
endloop
endfacet
facet normal -1.95831005732493e-17 1.40998324127395e-17 1.0
outer loop
vertex 21.0 74.5498445167808 5.0
vertex 15.4849242404918 71.0347687572725 5.0
vertex 15.8186533479473 70.5998445167808 5.0
endloop
endfacet
facet normal -1.95831005732493e-17 1.40998324127395e-17 1.0
outer loop
vertex 21.0 74.5498445167808 5.0
vertex 15.8186533479473 70.5998445167808 5.0
vertex 16.028444235207 70.0933645114961 5.0
endloop
endfacet
facet normal -1.95831005732493e-17 1.40998324127395e-17 1.0
outer loop
vertex 21.0 74.5498445167808 5.0
vertex 16.028444235207 70.0933645114961 5.0
vertex 16.1 69.5498445167808 5.0
endloop
endfacet
facet normal -1.95831005732493e-17 1.40998324127395e-17 1.0
outer loop
vertex 21.0 74.5498445167808 5.0
vertex 16.1 69.5498445167808 5.0
vertex 21.0 64.5498445167808 5.0
endloop
endfacet
facet normal 0.452136222769899 0.0595248629773858 -0.889960463586384
outer loop
vertex 24.0 73.5498445167808 3.0
vertex 18.6215724014504 69.5498445167808 0.0
vertex 18.4640961406257 70.7459954725964 0.0
endloop
endfacet
facet normal -1.0 0.0 0.0
outer loop
vertex 0.0 79.5498445167808 7.0
vertex 0.0 59.5498445167808 5.0
vertex 0.0 59.5498445167808 7.0
endloop
endfacet
facet normal -1.0 0.0 0.0
outer loop
vertex 0.0 59.5498445167808 5.0
vertex 0.0 79.5498445167808 7.0
vertex 0.0 79.5498445167808 5.0
endloop
endfacet
facet normal 1.0 -0.0 -0.0
outer loop
vertex 24.0 73.5498445167808 3.0
vertex 24.0 65.5498445167808 5.4
vertex 24.0 65.5498445167808 3.0
endloop
endfacet
facet normal 1.0 -0.0 -0.0
outer loop
vertex 24.0 65.5498445167808 5.4
vertex 24.0 73.5498445167808 3.0
vertex 24.0 73.5498445167808 5.4
endloop
endfacet
facet normal -0.0 -1.0 -0.0
outer loop
vertex 14.0 71.6498445167808 5.0
vertex 10.0 71.6498445167808 0.0
vertex 14.0 71.6498445167808 0.0
endloop
endfacet
facet normal -0.0 -1.0 -0.0
outer loop
vertex 10.0 71.6498445167808 0.0
vertex 14.0 71.6498445167808 5.0
vertex 10.0 71.6498445167808 5.0
endloop
endfacet
facet normal -0.608761429008728 0.79335334029123 0.0
outer loop
vertex 15.05 67.7311911688335 5.0
vertex 15.4849242404918 68.0649202762891 0.0
vertex 15.05 67.7311911688335 0.0
endloop
endfacet
facet normal -0.608761429008728 0.79335334029123 0.0
outer loop
vertex 15.4849242404918 68.0649202762891 0.0
vertex 15.05 67.7311911688335 5.0
vertex 15.4849242404918 68.0649202762891 5.0
endloop
endfacet
facet normal -0.793353340291233 0.608761429008723 0.0
outer loop
vertex 15.8186533479473 68.4998445167808 5.0
vertex 15.4849242404918 68.0649202762891 0.0
vertex 15.4849242404918 68.0649202762891 5.0
endloop
endfacet
facet normal -0.793353340291233 0.608761429008723 0.0
outer loop
vertex 15.4849242404918 68.0649202762891 0.0
vertex 15.8186533479473 68.4998445167808 5.0
vertex 15.8186533479473 68.4998445167808 0.0
endloop
endfacet
facet normal -0.923879532511287 0.38268343236509 0.0
outer loop
vertex 16.028444235207 69.0063245220655 5.0
vertex 15.8186533479473 68.4998445167808 0.0
vertex 15.8186533479473 68.4998445167808 5.0
endloop
endfacet
facet normal -0.923879532511287 0.38268343236509 0.0
outer loop
vertex 15.8186533479473 68.4998445167808 0.0
vertex 16.028444235207 69.0063245220655 5.0
vertex 16.028444235207 69.0063245220655 0.0
endloop
endfacet
facet normal -0.99144486137381 0.130526192220054 0.0
outer loop
vertex 16.1 69.5498445167808 5.0
vertex 16.028444235207 69.0063245220655 0.0
vertex 16.028444235207 69.0063245220655 5.0
endloop
endfacet
facet normal -0.99144486137381 0.130526192220054 0.0
outer loop
vertex 16.028444235207 69.0063245220655 0.0
vertex 16.1 69.5498445167808 5.0
vertex 16.1 69.5498445167808 0.0
endloop
endfacet
facet normal -0.991444861373811 -0.130526192220048 -0.0
outer loop
vertex 16.028444235207 70.0933645114961 5.0
vertex 16.1 69.5498445167808 0.0
vertex 16.1 69.5498445167808 5.0
endloop
endfacet
facet normal -0.991444861373811 -0.130526192220048 -0.0
outer loop
vertex 16.1 69.5498445167808 0.0
vertex 16.028444235207 70.0933645114961 5.0
vertex 16.028444235207 70.0933645114961 0.0
endloop
endfacet
facet normal -0.923879532511285 -0.382683432365095 -0.0
outer loop
vertex 15.8186533479473 70.5998445167808 5.0
vertex 16.028444235207 70.0933645114961 0.0
vertex 16.028444235207 70.0933645114961 5.0
endloop
endfacet
facet normal -0.923879532511285 -0.382683432365095 -0.0
outer loop
vertex 16.028444235207 70.0933645114961 0.0
vertex 15.8186533479473 70.5998445167808 5.0
vertex 15.8186533479473 70.5998445167808 0.0
endloop
endfacet
facet normal -0.793353340291233 -0.608761429008723 -0.0
outer loop
vertex 15.4849242404918 71.0347687572725 5.0
vertex 15.8186533479473 70.5998445167808 0.0
vertex 15.8186533479473 70.5998445167808 5.0
endloop
endfacet
facet normal -0.793353340291233 -0.608761429008723 -0.0
outer loop
vertex 15.8186533479473 70.5998445167808 0.0
vertex 15.4849242404918 71.0347687572725 5.0
vertex 15.4849242404918 71.0347687572725 0.0
endloop
endfacet
facet normal -0.60876142900873 -0.793353340291228 -0.0
outer loop
vertex 15.4849242404918 71.0347687572725 5.0
vertex 15.05 71.3684978647281 0.0
vertex 15.4849242404918 71.0347687572725 0.0
endloop
endfacet
facet normal -0.60876142900873 -0.793353340291228 -0.0
outer loop
vertex 15.05 71.3684978647281 0.0
vertex 15.4849242404918 71.0347687572725 5.0
vertex 15.05 71.3684978647281 5.0
endloop
endfacet
facet normal -0.382683432365085 -0.923879532511289 -0.0
outer loop
vertex 15.05 71.3684978647281 5.0
vertex 14.5435199947153 71.5782887519878 0.0
vertex 15.05 71.3684978647281 0.0
endloop
endfacet
facet normal -0.382683432365085 -0.923879532511289 -0.0
outer loop
vertex 14.5435199947153 71.5782887519878 0.0
vertex 15.05 71.3684978647281 5.0
vertex 14.5435199947153 71.5782887519878 5.0
endloop
endfacet
facet normal 0.382683432365086 0.923879532511288 0.0
outer loop
vertex 8.95 67.7311911688335 5.0
vertex 9.45648000528471 67.5214002815738 0.0
vertex 8.95 67.7311911688335 0.0
endloop
endfacet
facet normal 0.382683432365086 0.923879532511288 0.0
outer loop
vertex 9.45648000528471 67.5214002815738 0.0
vertex 8.95 67.7311911688335 5.0
vertex 9.45648000528471 67.5214002815738 5.0
endloop
endfacet
facet normal 0.130526192220044 0.991444861373811 0.0
outer loop
vertex 9.45648000528471 67.5214002815738 5.0
vertex 10.0 67.4498445167808 0.0
vertex 9.45648000528471 67.5214002815738 0.0
endloop
endfacet
facet normal 0.130526192220044 0.991444861373811 0.0
outer loop
vertex 10.0 67.4498445167808 0.0
vertex 9.45648000528471 67.5214002815738 5.0
vertex 10.0 67.4498445167808 5.0
endloop
endfacet
facet normal -0.0 1.0 0.0
outer loop
vertex 10.0 67.4498445167808 5.0
vertex 14.0 67.4498445167808 0.0
vertex 10.0 67.4498445167808 0.0
endloop
endfacet
facet normal -0.0 1.0 0.0
outer loop
vertex 14.0 67.4498445167808 0.0
vertex 10.0 67.4498445167808 5.0
vertex 14.0 67.4498445167808 5.0
endloop
endfacet
facet normal -0.130526192220045 0.991444861373811 0.0
outer loop
vertex 14.0 67.4498445167808 5.0
vertex 14.5435199947153 67.5214002815738 0.0
vertex 14.0 67.4498445167808 0.0
endloop
endfacet
facet normal -0.130526192220045 0.991444861373811 0.0
outer loop
vertex 14.5435199947153 67.5214002815738 0.0
vertex 14.0 67.4498445167808 5.0
vertex 14.5435199947153 67.5214002815738 5.0
endloop
endfacet
facet normal 0.793353340291233 0.608761429008723 0.0
outer loop
vertex 8.18134665205268 68.4998445167808 0.0
vertex 8.51507575950825 68.0649202762891 5.0
vertex 8.51507575950825 68.0649202762891 0.0
endloop
endfacet
facet normal 0.793353340291233 0.608761429008723 0.0
outer loop
vertex 8.51507575950825 68.0649202762891 5.0
vertex 8.18134665205268 68.4998445167808 0.0
vertex 8.18134665205268 68.4998445167808 5.0
endloop
endfacet
facet normal 0.608761429008729 0.793353340291229 0.0
outer loop
vertex 8.51507575950825 68.0649202762891 5.0
vertex 8.95 67.7311911688335 0.0
vertex 8.51507575950825 68.0649202762891 0.0
endloop
endfacet
facet normal 0.608761429008729 0.793353340291229 0.0
outer loop
vertex 8.95 67.7311911688335 0.0
vertex 8.51507575950825 68.0649202762891 5.0
vertex 8.95 67.7311911688335 5.0
endloop
endfacet
facet normal 0.923879532511288 0.382683432365087 0.0
outer loop
vertex 7.97155576479296 69.0063245220655 0.0
vertex 8.18134665205268 68.4998445167808 5.0
vertex 8.18134665205268 68.4998445167808 0.0
endloop
endfacet
facet normal 0.923879532511288 0.382683432365087 0.0
outer loop
vertex 8.18134665205268 68.4998445167808 5.0
vertex 7.97155576479296 69.0063245220655 0.0
vertex 7.97155576479296 69.0063245220655 5.0
endloop
endfacet
facet normal 0.608761429008729 -0.793353340291229 0.0
outer loop
vertex 8.95 71.3684978647281 5.0
vertex 8.51507575950825 71.0347687572725 0.0
vertex 8.95 71.3684978647281 0.0
endloop
endfacet
facet normal 0.608761429008729 -0.793353340291229 0.0
outer loop
vertex 8.51507575950825 71.0347687572725 0.0
vertex 8.95 71.3684978647281 5.0
vertex 8.51507575950825 71.0347687572725 5.0
endloop
endfacet
facet normal 0.793353340291233 -0.608761429008723 0.0
outer loop
vertex 8.51507575950825 71.0347687572725 0.0
vertex 8.18134665205268 70.5998445167808 5.0
vertex 8.18134665205268 70.5998445167808 0.0
endloop
endfacet
facet normal 0.793353340291233 -0.608761429008723 0.0
outer loop
vertex 8.18134665205268 70.5998445167808 5.0
vertex 8.51507575950825 71.0347687572725 0.0
vertex 8.51507575950825 71.0347687572725 5.0
endloop
endfacet
facet normal 0.923879532511285 -0.382683432365095 0.0
outer loop
vertex 8.18134665205268 70.5998445167808 0.0
vertex 7.97155576479296 70.0933645114961 5.0
vertex 7.97155576479296 70.0933645114961 0.0
endloop
endfacet
facet normal 0.923879532511285 -0.382683432365095 0.0
outer loop
vertex 7.97155576479296 70.0933645114961 5.0
vertex 8.18134665205268 70.5998445167808 0.0
vertex 8.18134665205268 70.5998445167808 5.0
endloop
endfacet
facet normal 0.99144486137381 -0.130526192220051 0.0
outer loop
vertex 7.97155576479296 70.0933645114961 0.0
vertex 7.9 69.5498445167808 5.0
vertex 7.9 69.5498445167808 0.0
endloop
endfacet
facet normal 0.99144486137381 -0.130526192220051 0.0
outer loop
vertex 7.9 69.5498445167808 5.0
vertex 7.97155576479296 70.0933645114961 0.0
vertex 7.97155576479296 70.0933645114961 5.0
endloop
endfacet
facet normal 0.0796264918096252 -0.604823252644765 -0.792368888121119
outer loop
vertex 15.1961509558155 65.0857483761551 0.0
vertex 3.0 59.5498445167808 3.0
vertex 14.3263154805501 64.9712323633463 0.0
endloop
endfacet
facet normal 0.258183172463944 -0.623309316538965 -0.738123936322473
outer loop
vertex 21.0 64.5498445167808 2.48263189536501
vertex 15.1961509558155 65.0857483761551 0.0
vertex 16.3107862007252 65.5474454116957 0.0
endloop
endfacet
endsolid Klammer
